<svg xmlns="http://www.w3.org/2000/svg"
     viewBox="0 0 130 115"
     width="130"
     height="115">
    
    <defs>
        <mask id="cutout">
            <rect width="130" height="115" fill="#FFFFFF" />
            <path
                d="
                    M 30 30
                    L 30 85
                    L 45 70
                    L 60 85
                    L 60 30
                    L 45 45
                    Z
                "
                fill="#000000" 
            />
        </mask>
    </defs>
    
    <path
        d="
            M 20 100
            L 20 15
            L 25 15
            L 45 30
            L 60 15
            L 70 15
            L 85 30
            L 100 15
            L 110 15
            L 110 100
            L 100 100
            L 100 30
            L 85 45
            L 70 30
            L 70 100
            L 60 100
            L 45 80
            L 25 100
            Z
        "
        fill="#ff0000"
        mask="url(#cutout)" 
    />

    <path
        d="
            M 123 70
            L 118 78
            L 88 48
            L 93 40
            Z
        "
        fill="#ff0000"
    />
</svg>